/* XPM */
static char *_dbc21dc7f804d96f85ee46d95c9633d[] = {
/* columns rows colors chars-per-pixel */
"16 16 130 2 ",
"   c #2E270C",
".  c #32270A",
"X  c #382C0A",
"o  c #382F0E",
"O  c #2F2912",
"+  c #443513",
"@  c #483813",
"#  c #453F24",
"$  c #544612",
"%  c #56502B",
"&  c #58542E",
"*  c #5E5839",
"=  c #67592B",
"-  c #6B5F2B",
";  c #625A36",
":  c #6E603A",
">  c #967611",
",  c #9D7E17",
"<  c #9E7F18",
"1  c #9C7D1B",
"2  c #827544",
"3  c #9F801B",
"4  c #A38313",
"5  c #A08114",
"6  c #A2841E",
"7  c #A4851C",
"8  c #A8891B",
"9  c #AA8B1F",
"0  c #9A832B",
"q  c #A78920",
"w  c #A78921",
"e  c #A88A21",
"r  c #AD8F20",
"t  c #AD8E21",
"y  c #AA8D28",
"u  c #908148",
"i  c #938B4E",
"p  c #A29246",
"a  c #A08D59",
"s  c #AE9C54",
"d  c #BD9F66",
"f  c #B9A562",
"g  c #C88B48",
"h  c #D19A55",
"j  c #D29D57",
"k  c #CFA05D",
"l  c #D7A15B",
"z  c #D1A45D",
"x  c #D4A75D",
"c  c #D3A85F",
"v  c #CFAE6F",
"b  c #D2AE65",
"n  c #DAAF68",
"m  c #C3B163",
"M  c #C5B668",
"N  c #CAB66D",
"B  c #CBB76F",
"V  c #DAB16E",
"C  c #DBB66C",
"Z  c #D6B96C",
"A  c #CAA973",
"S  c #CEB570",
"D  c #C5BA77",
"F  c #D0B472",
"G  c #D6B472",
"H  c #D5B672",
"J  c #D1B777",
"K  c #DAB470",
"L  c #D8B673",
"P  c #D0BB75",
"I  c #D7B877",
"U  c #DEBB72",
"Y  c #D6BD79",
"T  c #D9B978",
"R  c #E0BA71",
"E  c #DAC046",
"W  c #D1C46B",
"Q  c #D8CC6D",
"!  c #D5C775",
"~  c #D9C371",
"^  c #DBC271",
"/  c #DDC475",
"(  c #D7CA73",
")  c #DDC877",
"_  c #DDCF75",
"`  c #DFC87B",
"'  c #D9C87D",
"]  c #DDD47E",
"[  c #E1C077",
"{  c #E7C476",
"}  c #E3C67A",
"|  c #E1C879",
" . c #E3D273",
".. c #E1D177",
"X. c #ECDA76",
"o. c #E1D37A",
"O. c #E2D57E",
"+. c #E3D77E",
"@. c #E4D57D",
"#. c #E4D97D",
"$. c #EAE07F",
"%. c #DEC584",
"&. c #D8C68A",
"*. c #E7C681",
"=. c #E5CE85",
"-. c #E7D280",
";. c #E5D681",
":. c #E4D683",
">. c #E8D382",
",. c #EDD085",
"<. c #E9D486",
"1. c #E2D28D",
"2. c #E1D18E",
"3. c #EDD488",
"4. c #E8DD8D",
"5. c #E3D59D",
"6. c #E3D99F",
"7. c #EEE383",
"8. c #EDE789",
"9. c #EDE38F",
"0. c #EEE78C",
"q. c #F0E480",
"w. c #F3E689",
"e. c #F1E48C",
"r. c #ECE39F",
"t. c #E9DFA1",
"y. c #EEE4AE",
"u. c #F8F0B9",
"i. c #F7F1DE",
"p. c None",
/* pixels */
"p.p.p.p.p.p.X.E 0 $ p.p.p.p.p.p.",
"p.p.p.p.t.6.! o.@.M p ..p.p.p.p.",
"p.p.p.Q %.F P | #.7.=.<.u.p.p.p.",
"p.p.p.m n I Y / #.` } ,.' p.p.p.",
"p.p.& d l G _ W J K U { S % p.p.",
"p.p.i A [ 4.$.( v H K R T * p.p.",
"p.p.r.2.2.9.8.Z h z K -.&.; p.p.",
"p.p.i.y.c z ;.) b j C q.D # p.p.",
"p.p.p.5.3.g >.0.] k ^ w.2 p.p.p.",
"p.p.p.- a *.e.:.+.~ ..u O p.p.p.",
"p.p.p.p.o : f N N s =   p.p.p.p.",
"p.p.p.p.p.p.X + @ . p.p.p.p.p.p.",
"p.p.p.p.p.p.p.p.p.p.p.p.p.p.p.p.",
"p.p.p.p.p.p.p.p.p.p.p.p.p.p.p.p.",
"p.p.r e 9 y 4 7 p.e > p.5 6 p.p.",
"p.1 p.p., p.6 p.p.t p.8 p.e 1 p."
};
