/* XPM */
static char *_ec50c99c25e45288dda56dca56ec838[] = {
/* columns rows colors chars-per-pixel */
"64 64 256 2 ",
"   c #2A240B",
".  c #2A250C",
"X  c #332B0D",
"o  c #392F0E",
"O  c #3B330C",
"+  c #2E2912",
"@  c #2A2510",
"#  c #342D12",
"$  c #362F16",
"%  c #3A3315",
"&  c #3B351A",
"*  c #3D391D",
"=  c #363118",
"-  c #211E08",
";  c #44380F",
":  c #443A16",
">  c #423D22",
",  c #4B4115",
"<  c #584B15",
"1  c #5B4C12",
"2  c #7D5A01",
"3  c #785604",
"4  c #645315",
"5  c #6A5816",
"6  c #6B5610",
"7  c #786319",
"8  c #78620F",
"9  c #464224",
"0  c #4A4424",
"q  c #494529",
"w  c #554D28",
"e  c #5B5228",
"r  c #5D563A",
"t  c #655829",
"y  c #705932",
"u  c #796927",
"i  c #6C6437",
"p  c #7C7037",
"a  c #6B5B42",
"s  c #776F4F",
"d  c #815F04",
"f  c #8D6C0C",
"g  c #856407",
"h  c #94730D",
"j  c #987606",
"k  c #8B6B15",
"l  c #8D6E1A",
"z  c #836615",
"x  c #927313",
"c  c #93741B",
"v  c #9B7C1B",
"b  c #997918",
"n  c #8F701A",
"m  c #967922",
"M  c #9B7D23",
"N  c #927422",
"B  c #847637",
"V  c #8C7631",
"C  c #A07F06",
"Z  c #867B58",
"A  c #927B4A",
"S  c #897F62",
"D  c #9E801B",
"F  c #A78507",
"G  c #A38314",
"H  c #A98A1A",
"J  c #B49412",
"K  c #9B8124",
"L  c #92843D",
"P  c #A68927",
"I  c #AE9128",
"U  c #B29423",
"Y  c #B69927",
"T  c #BB9E2A",
"R  c #B89B29",
"E  c #B69B35",
"W  c #AB9235",
"Q  c #BEA129",
"!  c #BCA337",
"~  c #C3A525",
"^  c #C1A42A",
"/  c #C9AB2A",
"(  c #CEB12C",
")  c #D8BB2D",
"_  c #C4AA38",
"`  c #D7BC35",
"'  c #CAB43F",
"]  c #C7942D",
"[  c #E4CA36",
"{  c #DDC238",
"}  c #978A4E",
"|  c #918548",
" . c #AA9B45",
".. c #B78D52",
"X. c #B89258",
"o. c #A79451",
"O. c #BAAB5B",
"+. c #B3A24D",
"@. c #9B8A66",
"#. c #A9986C",
"$. c #BDA66A",
"%. c #BCA977",
"&. c #CA8B44",
"*. c #C98C49",
"=. c #CD934D",
"-. c #D1974D",
";. c #CE9751",
":. c #CA9857",
">. c #D29C54",
",. c #D29E5C",
"<. c #CCB446",
"1. c #C5A85B",
"2. c #D5A45B",
"3. c #D8A75C",
"4. c #CAB759",
"5. c #CFB84D",
"6. c #CB9E62",
"7. c #CCA464",
"8. c #C4AC62",
"9. c #CDA56B",
"0. c #CCAD6A",
"q. c #C8A965",
"w. c #D4A463",
"e. c #D9AC63",
"r. c #D4AC6B",
"t. c #D6AA68",
"y. c #CBB56D",
"u. c #CDBD6C",
"i. c #C8B667",
"p. c #DBB065",
"a. c #DCB46B",
"s. c #DEB96E",
"d. c #D2BA6A",
"f. c #CDAE7C",
"g. c #C6A974",
"h. c #D2AB74",
"j. c #CCBB73",
"k. c #CDB37B",
"l. c #CDBA7B",
"z. c #C8B476",
"x. c #D4B476",
"c. c #DBB472",
"v. c #D3BC73",
"b. c #DDBA72",
"n. c #D2BB7E",
"m. c #DCBB7C",
"M. c #D7B47C",
"N. c #E0BA6D",
"B. c #E1BD72",
"V. c #DCC345",
"C. c #D9C657",
"Z. c #ECD448",
"A. c #E9D455",
"S. c #EDD753",
"D. c #CEC36B",
"F. c #D3C46C",
"G. c #D8C869",
"H. c #DED36C",
"J. c #CDC279",
"K. c #D4C374",
"L. c #DAC374",
"P. c #D5CB76",
"I. c #DBCD74",
"U. c #D5C47B",
"Y. c #DCCD7B",
"T. c #D7C97C",
"R. c #DED274",
"E. c #DDD17B",
"W. c #E3D66C",
"Q. c #E6D86A",
"!. c #E2C175",
"~. c #E4C57B",
"^. c #E6CA7D",
"/. c #E8CB7D",
"(. c #E2D473",
"). c #E5DB74",
"_. c #E9DD74",
"`. c #E2D47B",
"'. c #E5DA7B",
"]. c #EADE7C",
"[. c #ECE275",
"{. c #EDE37D",
"}. c #F2E67D",
"|. c #F4E87A",
" X c #EEE06C",
".X c #F4E053",
"XX c #B9AD85",
"oX c #CCB987",
"OX c #D3BB84",
"+X c #D5BA86",
"@X c #CDB692",
"#X c #D4C283",
"$X c #DBC484",
"%X c #DBCC83",
"&X c #D2C28B",
"*X c #DBC48A",
"=X c #DACB8A",
"-X c #D6C984",
";X c #DDD284",
":X c #DED289",
">X c #DCCC92",
",X c #D7C498",
"<X c #DDD39A",
"1X c #CDC08B",
"2X c #E4CC83",
"3X c #E6CC85",
"4X c #E2D584",
"5X c #EBD385",
"6X c #E5DA83",
"7X c #E9DD84",
"8X c #E1D48C",
"9X c #E4DA8A",
"0X c #EADC8C",
"qX c #E9D78B",
"wX c #E3C994",
"eX c #E5DB92",
"rX c #EBDD95",
"tX c #E8DC9B",
"yX c #E5D697",
"uX c #F1DD97",
"iX c #EDE383",
"pX c #EDE38C",
"aX c #EFE883",
"sX c #F0E684",
"dX c #F3EA85",
"fX c #F9EE83",
"gX c #F1E68A",
"hX c #F4EB8C",
"jX c #F9ED8A",
"kX c #F9F08A",
"lX c #EBE292",
"zX c #ECE29A",
"xX c #F4EB93",
"cX c #F2E898",
"vX c #FCF59C",
"bX c #FAF395",
"nX c #DBC8A4",
"mX c #DDD3AF",
"MX c #E7D8A5",
"NX c #E1CFA2",
"BX c #EDE5A4",
"VX c #F5E9A7",
"CX c #FFFAA3",
"ZX c #FCF3A8",
"AX c #EDE5B6",
"SX c #F3E9B3",
"DX c #FCF4BA",
"FX c #F2EBC8",
"GX c #FAF3C7",
"HX c #FAF5D9",
"JX c #EFEBCC",
"KX c #FEFBEA",
"LX c #FBF7E3",
"PX c #FEFDF0",
"IX c #DED6C3",
"UX c None",
/* pixels */
"UXUXUXUXUXUXUXUXUXUXUXUXUXUXUXUXUXUXUXUXUXUXUXUXUXUXUX) ( ~ I D z 5 1 ; O UXUXUXUXUXUXUXUXUXUXUXUXUXUXUXUXUXUXUXUXUXUXUXUXUXUXUX",
"UXUXUXUXUXUXUXUXUXUXUXUXUXUXUXUXUXUXUXUXUXUXUXUXA.A.S.Z.[ [ ( Y R K u 4 , ; , 4 UXUXUXUXUXUXUXUXUXUXUXUXUXUXUXUXUXUXUXUXUXUXUXUX",
"UXUXUXUXUXUXUXUXUXUXUXUXUXUXUXUXUXUXUXUXUX XQ.C.W.gXsX}. X.X[ ~ ) T D l 5 , 6 6 4 K UXUXUXUXUXUXUXUXUXUXUXUXUXUXUXUXUXUXUXUXUXUX",
"UXUXUXUXUXUXUXUXUXUXUXUXUXUXUXUXUXUXUXUX].pXuX<.~.GXZXcX].Q.A.C.V.<.! V 7 , 8 4 , 5 R Z.UXUXUXUXUXUXUXUXUXUXUXUXUXUXUXUXUXUXUXUX",
"UXUXUXUXUXUXUXUXUXUXUXUXUXUXUXUXUXUXW.pXSXFXHXAX<XMXU.U.v.v.#X-X>XtXeX;XD.o.V < o < u ! .XVXUXUXUXUXUXUXUXUXUXUXUXUXUXUXUXUXUXUX",
"UXUXUXUXUXUXUXUXUXUXUXUXUXUXUXUXUX'.BXFXHXHXFX<Xz.i.8.K.K.F.u.E.=XU.G.K.E.E.%X&X} 4 < N V. XAXUXUXUXUXUXUXUXUXUXUXUXUXUXUXUXUXUX",
"UXUXUXUXUXUXUXUXUXUXUXUXUXUXUXUXC.>XLXLXHXNXj.i.G.D.u.(.(.Y.{.6X7X%X'.sX(.E.{.:X=X&Xo.u _ ' qXLXUXUXUXUXUXUXUXUXUXUXUXUXUXUXUXUX",
"UXUXUXUXUXUXUXUXUXUXUXUXUXUXUXG.AX1XMXAXl.j.P.I.D.j._.W.I.[.|.4X7XpX'.'.fX{.(.`.7X%XtX%XE / jXGXKXUXUXUXUXUXUXUXUXUXUXUXUXUXUXUX",
"UXUXUXUXUXUXUXUXUXUXUXUXUXUXC.eXAXAXP.0.9.%XD.i.D.E.G.y.I.[._.8X{.4XfX`.sXfXjXR.K.4XOX0XqXC.A.VXLXHXUXUXUXUXUXUXUXUXUXUXUXUXUXUX",
"UXUXUXUXUXUXUXUXUXUXUXUXUX<.Q.tXAX:Xq.3.c.-Xu.z.oX%.0.m.m.L.L.-XD.j.d.D.v.(.I.j.OX$X+X5X/.2XH.|.HXLXZXUXUXUXUXUXUXUXUXUXUXUXUXUX",
"UXUXUXUXUXUXUXUXUXUXUXUX .C._.zX<Xz.B.b.N.h.$XoXoXOXn.y.~.!.B.3X`.T.H._.E.6X}.].#X5X5X!./.2XqX_.GXKXZX|.UXUXUXUXUXUXUXUXUXUXUXUX",
"UXUXUXUXUXUXUXUXUXUXUXUX .Q.{.9Xk.n.a.p.a.m.+X@XOX%Xj.x.N.b.~.zX[.4XdX}.{.4XfXsXOX~./././.~./.5XZXKXSXC.UXUXUXUXUXUXUXUXUXUXUXUX",
"UXUXUXUXUXUXUXUXUXUXUXp H ' _.U.%X7.2.t.p.p.M.OXM.qXD.x.a.!.m.eX[.:XiX|.|.6XhX].&X3X5X^.~./.^.~.zXAX1.C.+.UXUXUXUXUXUXUXUXUXUXUX",
"UXUXUXUXUXUXUXUXUXUXt p W ' K.tXU.,.2.2.3.r.+Xz.h.4Xz.p.p.c.*X4X[.;XsXR.E.`.;XK.x.~.2X5X5XqX5X~.5XSX8X|.L UXUXUXUXUXUXUXUXUXUXUX",
"UXUXUXUXUXUXUXUXUXUXe | +.4.OX=X:.>.>.e.0XY.XXk.~.T.q.t.d.I.F.;X X6XE.0.B.b.+X~.!.B.5X^.~.5X/.5X5XuXZXC.B 9 UXUXUXUXUXUXUXUXUXUX",
"UXUXUXUXUXUXUXUXUXUXe B  .$.MXq.3.w.2.w.zXY.9.OX].J.M.^.H.j.g.4XW.;Xl.m.+XN.b././.~./.~././.B.!.^.~.qX .i 9 UXUXUXUXUXUXUXUXUXUX",
"UXUXUXUXUXUXUXUXUX9 e p L 1X:X,.,.2.e.3.+X7.2.+XiXP.-X(.H.H.K.E. Xl.r.~.,Xb.B.b.b.B.!.!.!.B.~.^.^.^.yX} t 9 9 UXUXUXUXUXUXUXUXUX",
"UXUXUXUXUXUXUXUXUX0 w i | mX0.>.2.2.r.2.7.>.e.B.7X).).W.H.H.I.J.D.#XOX*X1Xx.p.c.!.s.N.!.B.!.B.^.^.^.uX#.0 9 9 UXUXUXUXUXUXUXUXUX",
"UXUXUXUXUXUXUXUXUXq 9 w @.NX1.2.2.>.f.h.2.p.r.h.K.D.i.i.O.i.O.$.+Xl.0.n.0.3.p.a.a.N.N.c.!.!.B.!.!.~.5X%.> w w UXUXUXUXUXUXUXUXUX",
"UXUXUXUXUXUXUXUXi 5 e 9 XX,X:.2.>.>.x.w.3.9.oX+XpX).R.I.G.G.i.l.k.n.e.>.e.s.p.p.b.a.$X!.c.p.s.s.~.!./.+Xu i w UXUXUXUXUXUXUXUXUX",
"UXUXUXUXUXUXUXUX| u u e ,XwX*.-.;.=.>.p.qX:XeX8XaXiX'.).).W.P.I.z.7.-.a.p.p.r.*XOXc.OX+XB.B.N.!.!.!.~.qXp > 9 9 UXUXUXUXUXUXUXUX",
"UXUXUXUXUXUXUXUXo.p t r mX+X;.&.=.&.w.cXkX9X0X:XaXiX].'.(.H.D.z.q.r.x.OX,Xw.r.r.q.t.c.*Xs.N.b.a.a.B.N.wXs > q 9 UXUXUXUXUXUXUXUX",
"UXUXUXUXUXUXUXUXD.| i s <XOX,.+X*X+XcXxXhX:XpX:XgXiXiX].).).J.oX2.-Xl.z.oX>XoXM.a.p.e.a.!.a.N.B.s.B.a.MXs & q > UXUXUXUXUXUXUXUX",
"UXUXUXUXUXUXUXUXiXO.o.@.VXtX9.MXzX,XcXxXhX8XhX:XpXiXiX].).R.J.z.7.1.>.0.E.F.v.I.1.N.!.$Xm.b.r.p.a.*Xc.yXS * q q UXUXUXUXUXUXUXUX",
"UXUXUXUXUXUXUXUXCX'.D.%.VXcXoXr.:XoXMXbXpXeXkX:XlXsXiX{.].R.J.g.3.w.3.3.>.q.e.2.c.c.N.~.+X3X0Xk.B.<X+XMX@.* 0 9 UXUXUXUXUXUXUXUX",
"UXUXUXUXUXUXUXUXDXbX{.J.,X7X<X+X3X<X&XlXpXeXbX4XlXsXiXiX{.P.q.2.2.p.3.-.>.e.2.3.p.,Xt.p.w.uXfX%XwXlX,XnXs = 9 9 UXUXUXUXUXUXUXUX",
"UXUXUXUXUXUXUXUXGXDXCXeXMX0X%X-X+XbXlXxXlXrXkX4X0XgXiXiX{.l.,.3.;.2.>.>.2.>.;.e.3.c.*Xc.2XdXfX6X+X:XoXNXs < w 9 UXUXUXUXUXUXUXUX",
"UXUXUXUXUXUXUXUXLXLXGX<XNXvXtXpXn.h.7.^.4XzXbXpXeXkXhXgXaXOX>.>.2.2.>.-.3.>.2.3.e.p.m.v.2X'.`.H.U.tX:X,Xp 5 e 9 UXUXUXUXUXUXUXUX",
"UXUXUXUXUXUXUXUXKXFX<X<XnXcXeXCXeXg.&.;.w.v.`.I.T.7X`.`.R.g.,.>.;.;.>.;.;.2.3.>.e.e.e.p.4X(.].fX4XxX7X@Xq 0 0 UXUXUXUXUXUXUXUXUX",
"UXUXUXUXUXUXUXUXUXFXHXKXnXuXzXCX:X,.-.>.>.=.v.F.y.Y.F.K.u.u.z.:.=.w.7.2.;.;.2.e.w.N.a.m.iX|.fX|.%XjXlX@.& > 9 UXUXUXUXUXUXUXUXUX",
"UXUXUXUXUXUXUXUXUXPXKXKXIX,XtXvXtX6.-.*.;.>.9.5X9XcXhXxXdXdX%X:XI.-XP.g.2.>.2.2.e.3.~.'.G.G.(.`.=XfX<Xs = 9 > UXUXUXUXUXUXUXUXUX",
"UXUXUXUXUXUXUXUXUXLXLXKXLX@XyXuX4XoX*.;.;.;.-.;.;.~.xXaXpXaX;XiX(.T.W.z.7.>.>.2.3.t.0X|.}.].R.y.:XaX@Xq * > > UXUXUXUXUXUXUXUXUX",
"UXUXUXUXUXUXUXUXUXUXHXHXKXIX+X=XCXBX9.&.=.&.=.=.&.c.bXdXgXaX:XiX`.;X).P.k.>.>.2.p.w.0XK.7X|.].%XI.=XS $ > * UXUXUXUXUXUXUXUXUXUX",
"UXUXUXUXUXUXUXUXUXUXVXGXHXJXoX+XCXvXeX:.=.&.*.&.,.<XpXxXgXaX%XpX`.%X).P.q.;.:.>.p.s.y.+XdX_.Y.4X9Xk.w $ * * UXUXUXUXUXUXUXUXUXUX",
"UXUXUXUXUXUXUXUXUXUXW.iXzX*XIXg.cXCXZXk.&.&.=.&.c.rX4XhXgXdX%XpX`.:X[.P.9.2.2.;.r.6Xz.7X|.I.6X4X:XA 6 7 > UXUXUXUXUXUXUXUXUXUXUX",
"UXUXUXUXUXUXUXUXUXUXUXO._ 4.BX@Xx.xXvXwX*.&.=.M.cXhX:XxXgXgX;XpX6X9X).E.k.>.>.2.$XH.`.[.I.'.I.U.#.$ 4 4 * UXUXUXUXUXUXUXUXUXUXUX",
"UXUXUXUXUXUXUXUXUXUXUXUXB 4.C.K.f.h.4X#X:.&.;.zXCXbX0XlXkXkX8XxX9X0XiX[.oX,.e.v.I.W.W.G.u.d.z.f.q + = = UXUXUXUXUXUXUXUXUXUXUXUX",
"UXUXUXUXUXUXUXUXUXUXUXUX> t B u | f.L.lXf.*.h.0X6X6X'.v.^.I.j.K.u.K.F.D.u.0.j.i.u.D.8.u.W.u.k.w @ = = $ UXUXUXUXUXUXUXUXUXUXUXUX",
"UXUXUXUXUXUXUXUXUXUXUXUXUX& & * % a g.^.=Xh.$Xx.K.d.~.u.y.F.y.v.y.K.F.D.4.8.8.$.D.4.F.W.G.$.w - $ + $ UXUXUXUXUXUXUXUXUXUXUXUXUX",
"UXUXUXUXUXUXUXUXUXUXUXUXUXUX% % % . r g.L.g.+Xl.Y.bXCXbXY.bX0XpX9XpXgXaXP.'.R.K.1.i.H.G...t . + + + UXUXUXUXUXUXUXUXUXUXUXUXUXUX",
"UXUXUXUXUXUXUXUXUXUXUXUXUXUXUX% $ : 4 > @.c.+X-X2XY.2XbXpXY.qX0X:XpXiXK.7X).y.u.H.F.1.A & O 4 @ + UXUXUXUXUXUXUXUXUXUXUXUXUXUXUX",
"UXUXUXUXUXUXUXUXUXUXUXUXUXUXUXUX# 1 < X   a %.^.d.4XE.Y.iX0XU.rXeXsXP.E.R.8.K.G.1.} t   @ + ; o UXUXUXUXUXUXUXUXUXUXUXUXUXUXUXUX",
"UXUXUXUXUXUXUXUXUXUXUXUXUXUXUXUXUX, ; $ o   $ a #.6.a.B.8.d.8.y.U.0.8.d.t.0.1.V t #   X + X @ UXUXUXUXUXUXUXUXUXUXUXUXUXUXUXUXUX",
"UXUXUXUXUXUXUXUXUXUXUXUXUXUXUXUXUXUX+ o # o X   : y y A X.X...:...X.....A y > 1 X @ X X X + UXUXUXUXUXUXUXUXUXUXUXUXUXUXUXUXUXUX",
"UXUXUXUXUXUXUXUXUXUXUXUXUXUXUXUXUXUXUXUX# o X o 8 1 - X $ > > e y 0 : X     . 4 6 X X X UXUXUXUXUXUXUXUXUXUXUXUXUXUXUXUXUXUXUXUX",
"UXUXUXUXUXUXUXUXUXUXUXUXUXUXUXUXUXUXUXUXUXUXX % 6 ; X X X X   X 6 O   X X X X ; ; o UXUXUXUXUXUXUXUXUXUXUXUXUXUXUXUXUXUXUXUXUXUX",
"UXUXUXUXUXUXUXUXUXUXUXUXUXUXUXUXUXUXUXUXUXUXUXUXO X X X X X   ; 8 ;   X X X X X UXUXUXUXUXUXUXUXUXUXUXUXUXUXUXUXUXUXUXUXUXUXUXUX",
"UXUXUXUXUXUXUXUXUXUXUXUXUXUXUXUXUXUXUXUXUXUXUXUXUXUXUXX X X X o ; X X X UXUXUXUXUXUXUXUXUXUXUXUXUXUXUXUXUXUXUXUXUXUXUXUXUXUXUXUX",
"UXUXUXUXUXUXUXUXUXUXUXUXUXUXUXUXUXUXUXUXUXUXUXUXUXUXUXUXUXUXUXUXUXUXUXUXUXUXUXUXUXUXUXUXUXUXUXUXUXUXUXUXUXUXUXUXUXUXUXUXUXUXUXUX",
"UXUXUXUXUXUXUXUXUXUXUXUXUXUXUXUXUXUXUXUXUXUXUXUXUXUXUXUXUXUXUXUXUXUXUXUXUXUXUXUXUXUXUXUXUXUXUXUXUXUXUXUXUXUXUXUXUXUXUXUXUXUXUXUX",
"UXUXUXUXUXUXUXUXUXUXUXUXUXUXUXUXUXUXUXUXUXUXUXUXUXUXUXUXUXUXUXUXUXUXUXUXUXUXUXUXUXUXUXUXUXUXUXUXUXUXUXUXUXUXUXUXUXUXUXUXUXUXUXUX",
"UXUXUXUXUXUXUXUXUXUXUXUXUXUXUXUXUXUXUXUXUXUXUXUXUXUXUXUXUXUXUXUXUXUXUXUXUXUXUXUXUXUXUXUXUXUXUXUXUXUXUXUXUXUXUXUXUXUXUXUXUXUXUXUX",
"UXUXUXUXUXUXUXUXUXUXUXUXUXUXUXUXUXUXUXUXUXUXUXUXUXUXUXUXUXUXUXUXUXUXUXUXUXUXUXUXUXUXUXUXUXUXUXUXUXUXUXUXUXUXUXUXUXUXUXUXUXUXUXUX",
"UXUXUXUXUXUXUXUXUXUXUXUXUXUXUXUXUXUXUXUXUXUXUXUXUXUXUXUXUXUXUXUXUXUXUXUXUXUXUXUXUXUXUXUXUXUXUXUXUXUXUXUXUXUXUXUXUXUXUXUXUXUXUXUX",
"UXUXUXR M UXUXUXQ P Q Y m UXUXUXR M ~ W <.^ M UXUXUXUXF P W M P v I P / I M M H H UXUXf D n D UXUX~ R c UXUXUX! P UXUXUXUXUXUXUX",
"UXUXUX_ n UXUXUX( n UXT 3 n UXUXT k UXI 8 UXM UXUXUXUXC P _ k UXUXJ P UXI n UXUXU n d v UXUXUXUXUXUXG 3 c UXUX` c UXUXUXUXUXUXUX",
"UXUXUX/ b UXUXUX/ c UX^ 3 k UXUXT k UXU z UXE z UXUXUXb UX~ n UXUXUXUXUXY k UXUXV.d 3 c UXUXUXUXUXUXh x n UXUX` v UXUXUXUXUXUXUX",
"UXUXUX/ n UXUXUX( c UXT Y T z UXT z UXU k UX5.n UXUXF b UXQ b UXUXD UXUXY n UXUXj x F j M UXUXUXUXF v A.M UXUX) v UXUXUXUXUXUXUX",
"UXUXUX/ b UXUXUX( c UX^ n Z.v UXQ k UXU k UXUXP UXUXF N UXQ g W b f UXUXU m 4.g k ! UXC h b UXUXUXF z UXE z UX) D UXUXUXUXUXUXUX",
"UXUXUX/ n UXUXUX( c UX^ z UXY P ~ k UXU k UXUXE z UXG UXUXQ b UXUXQ UXUXH D G k UXUXUXUXUXF x UXUXj W _ h z UX) v UXUXUXUXUXUXUX",
"UXUXUX_ n UXUXUX~ c UX^ n UXV.c g x UXU k UXUX5.m F b UXUX^ n UXUXUXUXUXY c [ v UXUXUXUXUXUXI k J h f 2 h b UXUXv UXUXUXUXUXUXUX",
"UXUXUXV.m UXUXUXF c UXT n UXUXP 3 c UXU k UXUXUXc 3 K UXUX^ c UXUXUXUXUXY z UXT k UXUXUXUXUXG _ J b UXUXUXW UXUXv UXUXUXH UXUXUX",
"UXUXUXUXJ x UXd h UXUX~ n UXUXV.g k UXU k UXUXUXE g UXUXUX~ k UXUXh x UXR n UXUXG b H T UX2 c Z.G UXUXUXUX_ z { x P UXv h UXUXUX",
"UXUXUXUXUXd g b UXUXUXU P UXUXUXb UXUXG P UXUXUXH P UXUXUXH 2 f k 2 v UXG P UXUXb j b 2 g v UXUXH UXUXUXUXH v <.d g f 2 x UXUXUX"
};
