/* XPM */
static char *b9d8bcb0d64449caf0a450dfcea25bb9[] = {
/* columns rows colors chars-per-pixel */
"32 32 235 2 ",
"   c #27210B",
".  c #2C250B",
"X  c #352C0C",
"o  c #3B320D",
"O  c #2E2910",
"+  c #342D13",
"@  c #392E14",
"#  c #363016",
"$  c #3A3111",
"%  c #35311B",
"&  c #393419",
"*  c #3E3B1E",
"=  c #44380E",
"-  c #4C3D0B",
";  c #453912",
":  c #493D14",
">  c #433C1E",
",  c #4D3E1A",
"<  c #473D20",
"1  c #56470F",
"2  c #5A490A",
"3  c #4C441B",
"4  c #5C4A1A",
"5  c #625314",
"6  c #474220",
"7  c #4A4424",
"8  c #544C25",
"9  c #5E5427",
"0  c #5B5429",
"q  c #5C5232",
"w  c #605428",
"e  c #62592C",
"r  c #645D3A",
"t  c #7B6D2F",
"y  c #6D6332",
"u  c #746633",
"i  c #796737",
"p  c #655F43",
"a  c #7E6C49",
"s  c #87660D",
"d  c #88670B",
"f  c #8F6E0B",
"g  c #9F7D03",
"h  c #9B7A0D",
"j  c #886912",
"k  c #8C791F",
"l  c #937414",
"z  c #9B7C14",
"x  c #957619",
"c  c #94791C",
"v  c #997A1B",
"b  c #80712F",
"n  c #9C7E22",
"m  c #816B32",
"M  c #857836",
"N  c #8A7343",
"B  c #9F8015",
"V  c #9E801E",
"C  c #A3820D",
"Z  c #A28214",
"A  c #A0821D",
"S  c #AB8C1E",
"D  c #9E8021",
"F  c #9D872F",
"G  c #998B3B",
"H  c #A38521",
"J  c #A78922",
"K  c #AB8D21",
"L  c #A68928",
"P  c #AB8E29",
"I  c #AE9024",
"U  c #AD902A",
"Y  c #B19324",
"T  c #B79A27",
"R  c #B89A21",
"E  c #B1942A",
"W  c #B69B2E",
"Q  c #BA9D29",
"!  c #B79B31",
"~  c #BBA23A",
"^  c #C1AA36",
"/  c #CFB43D",
"(  c #D2B83C",
")  c #DCC132",
"_  c #8C8355",
"`  c #978957",
"'  c #A4964E",
"]  c #A48950",
"[  c #A39355",
"{  c #AD9355",
"}  c #A7955F",
"|  c #BC9D59",
" . c #BEA15D",
".. c #B9AD5D",
"X. c #9B9064",
"o. c #B19B66",
"O. c #B2A362",
"+. c #BCA16C",
"@. c #B4A874",
"#. c #C58544",
"$. c #CA8B44",
"%. c #CB8F4A",
"&. c #CD934D",
"*. c #CF9752",
"=. c #CF9B56",
"-. c #CA985A",
";. c #D29C55",
":. c #D19E59",
">. c #C6B44D",
",. c #C2AD5D",
"<. c #D5A157",
"1. c #D5A45A",
"2. c #D8A65E",
"3. c #D5A95D",
"4. c #C3A364",
"5. c #CDA161",
"6. c #CDAE6B",
"7. c #D2A663",
"8. c #D3A863",
"9. c #D9AB63",
"0. c #D3A76A",
"q. c #D4AC6A",
"w. c #D8AE68",
"e. c #CDBD65",
"r. c #C6B56D",
"t. c #CEB16A",
"y. c #CCBC6A",
"u. c #D4B166",
"i. c #DBB36B",
"p. c #D1B86D",
"a. c #DFB96E",
"s. c #C1B072",
"d. c #CEB571",
"f. c #CCBE75",
"g. c #CEB57A",
"h. c #CCBB78",
"j. c #D4B372",
"k. c #DAB675",
"l. c #D2BC73",
"z. c #DEBB73",
"x. c #D2B47D",
"c. c #D8B678",
"v. c #D3BA7B",
"b. c #D9BA7A",
"n. c #E0BC6F",
"m. c #E1BD72",
"M. c #DBC344",
"N. c #E9D145",
"B. c #CFC267",
"V. c #D3C566",
"C. c #D5C46D",
"Z. c #D4C86D",
"A. c #D9CD6C",
"S. c #D3C374",
"D. c #DCC675",
"F. c #DCCC75",
"G. c #D4C37C",
"H. c #DDC27D",
"J. c #D5C97B",
"K. c #DBCB7B",
"L. c #DDD075",
"P. c #DED07A",
"I. c #E0CF6F",
"U. c #EDDA67",
"Y. c #EBD868",
"T. c #E3C276",
"R. c #E2CC71",
"E. c #E4C679",
"W. c #E6CA7E",
"Q. c #E8C87A",
"!. c #E1D572",
"~. c #E3DA74",
"^. c #E8DC74",
"/. c #E1D47C",
"(. c #E9D57D",
"). c #E6DA7B",
"_. c #E8DC7C",
"`. c #ECE17D",
"'. c #BEAE83",
"]. c #CFBC8C",
"[. c #D4BD83",
"{. c #D3BD89",
"}. c #CEC184",
"|. c #D4C383",
" X c #DBC483",
".X c #DDCD84",
"XX c #DCC68B",
"oX c #DDCD89",
"OX c #DFD382",
"+X c #DED08A",
"@X c #D9C793",
"#X c #DECD93",
"$X c #DFCC9B",
"%X c #E1C586",
"&X c #E5C982",
"*X c #EACF81",
"=X c #E3C68C",
"-X c #E4D383",
";X c #E5DB85",
":X c #E8DC84",
">X c #E2D58C",
",X c #EBD58B",
"<X c #E6DB8C",
"1X c #E9DC8B",
"2X c #EAD490",
"3X c #E8DA90",
"4X c #E4D39E",
"5X c #E6D999",
"6X c #EDE285",
"7X c #EEE48D",
"8X c #F0E480",
"9X c #F3EB87",
"0X c #F1E48B",
"qX c #F3EA8C",
"wX c #ECE091",
"eX c #EDE39C",
"rX c #F4E693",
"tX c #F4EC93",
"yX c #F8F39E",
"uX c #DED2A3",
"iX c #EEDEA3",
"pX c #E1D2B4",
"aX c #E8DFB3",
"sX c #EEE3A2",
"dX c #E9E2AD",
"fX c #F6ECAF",
"gX c #F9F4A0",
"hX c #ECE4C2",
"jX c #FAF4CB",
"kX c #FFFCCF",
"lX c #EFE9D6",
"zX c #F6F1D6",
"xX c #FEF9DB",
"cX c #FEFEF3",
"vX c None",
/* pixels */
"vXvXvXvXvXvXvXvXvXvXvXvXvXN.) R c 5 = vXvXvXvXvXvXvXvXvXvXvXvXvX",
"vXvXvXvXvXvXvXvXvXvX6XI.:XrXU.M./ F 5 2 5 ( vXvXvXvXvXvXvXvXvXvX",
"vXvXvXvXvXvXvXvXvXsXjXaX|.G.S.K.+XK.y.[ w k U.vXvXvXvXvXvXvXvXvX",
"vXvXvXvXvXvXvXvX+XhXuXZ.B.F.!._.;X_.8X6X.XO.^ fXvXvXvXvXvXvXvXvX",
"vXvXvXvXvXvXvX/.dXu.j.f.f.l.D./.P.F._.!.G.2XT.`.xXvXvXvXvXvXvXvX",
"vXvXvXvXvXvX>.6X|.w.k.{.{.x.m.&X/.)._.:X%XW.W.(.jXrXvXvXvXvXvXvX",
"vXvXvXvXvXt ~ -Xj.1.i.x.H.p.i.-X:X`._./.H.*X*XW.iXF.G vXvXvXvXvX",
"vXvXvXvXvXy ..|.:.3..Xg.H.l.C.K.).l.b.H.E.W.W.E.,XF.e vXvXvXvXvX",
"vXvXvXvXvX0 @.k.:.w.7.i./.L.A.Z.D.[.[.a.m.m.T.T.*Xs.6 vXvXvXvXvX",
"vXvXvXvX0 8 '.2.:.0.7.c.L.Z.B.r.g.w.9.w.z.z.a.z.W.b.e 7 vXvXvXvX",
"vXvXvXvXM y ].*.%.a.3X>X6X_.~.S.6.q.j.j.j.b.m.z.n.&Xr < vXvXvXvX",
"vXvXvXvX.._ #Xc.@XtX7X<X6X`.~.h.0.g.|.l.w.m.z.i.a.=Xp > vXvXvXvX",
"vXvXvXvXtXK.5X X#XeX7X1X7X6XP.6.3.<.1.3.k.k.&X-XXX$Xp * vXvXvXvX",
"vXvXvXvXkXsX5X3X XK.wX7X7X9XK.=.;.:.<.<.i.k.(._.oX@Xu 3 vXvXvXvX",
"vXvXvXvXzXhX4XgXb.%.8.D.P./.S.5.-.:.;.1.9.a./.`.0X}.7 6 vXvXvXvX",
"vXvXvXvXvXcXpX3XH.%.*.3.D.qX6XOXP.S.:.<.w.(.^.F.7XX.% vXvXvXvXvX",
"vXvXvXvXvXjXlX|.yXq.$.$.q.tX6X;X/.L.5.;.w.K.8X/..Xq & vXvXvXvXvX",
"vXvXvXvXvXV.K.$XrX3X#.=.3X7XqX1X1X/.7.<.D.P.L.;X` 1 < vXvXvXvXvX",
"vXvXvXvXvXvXb ' +.,X-.m.tX/./.K.J.L.6.6.Z.Z.R.} + # vXvXvXvXvXvX",
"vXvXvXvXvXvXvX+ > o.%Xv.K.,XK.K.K.L.Z.y.e.I.{ # O vXvXvXvXvXvXvX",
"vXvXvXvXvXvXvXvX; : a x.*X0X7X<X7X:X/.C.,.i X $ vXvXvXvXvXvXvXvX",
"vXvXvXvXvXvXvXvXvX$ . < N { | 4.4.| ] m :   O vXvXvXvXvXvXvXvXvX",
"vXvXvXvXvXvXvXvXvXvX+ X - X @ , 4 + . o = O vXvXvXvXvXvXvXvXvXvX",
"vXvXvXvXvXvXvXvXvXvXvXvXvXX . X - . X vXvXvXvXvXvXvXvXvXvXvXvXvX",
"vXvXvXvXvXvXvXvXvXvXvXvXvXvXvXvXvXvXvXvXvXvXvXvXvXvXvXvXvXvXvXvX",
"vXvXvXvXvXvXvXvXvXvXvXvXvXvXvXvXvXvXvXvXvXvXvXvXvXvXvXvXvXvXvXvX",
"vXvXvXvXvXvXvXvXvXvXvXvXvXvXvXvXvXvXvXvXvXvXvXvXvXvXvXvXvXvXvXvX",
"vXQ n vXY I j vXI E ! n vXvXU n K Q L A A s H vXvXz vXvXH vXvXvX",
"vXvXv vXI K z vXI S vXP vXC Y vXvXvXJ vXz f vXvXvXZ vXvXn vXvXvX",
"vXvXc vXI I ! I S I vX~ h Z vXv z vXI v vXvXh vXg U x vXA vXvXvX",
"vXvXD vXZ E vXY d T vXvXv vXvXv vXvXK Y vXvXvXS Z vXA K A vXvXvX",
"vXvXh x vXvXvXvXx Y vXvXA vXvXv x z K vXZ B l Q S vXvXK v x l vX"
};
